<?xml version="1.0" standalone="no"?>
<!DOCTYPE svg PUBLIC "-//W3C//DTD SVG 20010904//EN"
 "http://www.w3.org/TR/2001/REC-SVG-20010904/DTD/svg10.dtd">
<svg version="1.0" xmlns="http://www.w3.org/2000/svg"
 width="700.000000pt" height="700.000000pt" viewBox="0 0 700.000000 700.000000"
 preserveAspectRatio="xMidYMid meet">
<metadata>
Created by potrace 1.14, written by Peter Selinger 2001-2017
</metadata>
<g transform="translate(0.000000,700.000000) scale(0.100000,-0.100000)"
fill="#000000" stroke="none">
<path d="M0 3500 l0 -3500 3500 0 3500 0 0 3500 0 3500 -3500 0 -3500 0 0
-3500z m1850 1353 c0 -515 4 -933 8 -927 5 5 206 426 448 936 l439 928 348 0
348 0 -84 -162 c-185 -356 -747 -1466 -747 -1475 0 -7 791 -2652 836 -2795 5
-17 -17 -18 -358 -18 l-363 0 -275 923 c-151 507 -284 954 -296 992 l-21 70
-141 -282 -142 -283 0 -710 0 -710 -350 0 -350 0 0 2225 0 2225 350 0 350 0 0
-937z m3207 926 c141 -15 275 -53 383 -106 80 -39 110 -62 186 -137 75 -76 98
-106 137 -186 86 -175 117 -351 117 -672 0 -309 -27 -464 -111 -637 -43 -87
-63 -116 -127 -180 -49 -48 -102 -89 -144 -111 -38 -19 -68 -37 -68 -40 1 -3
42 -25 93 -49 78 -37 105 -57 177 -130 122 -123 187 -256 227 -465 15 -77 18
-152 18 -476 0 -411 -4 -461 -52 -615 -108 -345 -352 -551 -730 -615 -106 -18
-165 -20 -744 -20 l-629 0 0 2225 0 2225 585 0 c351 0 624 -4 682 -11z"/>
<path d="M4490 4565 l0 -587 203 4 c242 5 287 17 373 102 92 93 114 188 114
498 0 291 -24 398 -112 487 -67 69 -96 76 -350 79 l-228 3 0 -586z"/>
<path d="M4490 2655 l0 -687 253 4 c228 4 257 6 305 25 74 30 113 62 144 119
48 89 58 173 58 491 0 158 -5 320 -10 358 -22 154 -73 252 -158 306 -86 54
-126 62 -369 67 l-223 4 0 -687z"/>
</g>
</svg>
